<svg width="55" height="72" viewBox="0 0 55 72" fill="none" xmlns="http://www.w3.org/2000/svg">
<path d="M32.6015 22.7289C30.7798 22.8196 29.0643 22.7932 27.785 22.742C27.7337 21.4627 27.7074 19.7472 27.7981 17.9255C27.8912 16.0566 28.1041 14.1507 28.5082 12.5168C28.9279 10.8197 29.4779 9.73532 30.0209 9.19239C33.1451 6.06819 38.2104 6.06819 41.3346 9.19239C44.4588 12.3166 44.4588 17.3819 41.3346 20.5061C40.7917 21.049 39.7073 21.5991 38.0102 22.0188C36.3763 22.4229 34.4704 22.6358 32.6015 22.7289Z" stroke="black" stroke-width="5"/>
<path d="M22.9254 48.798C24.747 48.7073 26.4625 48.7336 27.7419 48.7848C27.7931 50.0642 27.8195 51.7797 27.7287 53.6014C27.6357 55.4703 27.4227 57.3762 27.0187 59.01C26.599 60.7071 26.0489 61.7915 25.506 62.3345C22.3818 65.4587 17.3165 65.4587 14.1923 62.3345C11.0681 59.2103 11.0681 54.145 14.1923 51.0208C14.7352 50.4778 15.8196 49.9277 17.5167 49.508C19.1505 49.104 21.0564 48.8911 22.9254 48.798Z" stroke="black" stroke-width="5"/>
<path d="M2.5 29C2.5 25.4101 5.41015 22.5 9 22.5H27.5V35.5H9C5.41015 35.5 2.5 32.5899 2.5 29Z" stroke="black" stroke-width="5"/>
<path d="M52.5 42C52.5 45.5899 49.5899 48.5 46 48.5L27.5 48.5L27.5 35.5L46 35.5C49.5899 35.5 52.5 38.4101 52.5 42Z" stroke="black" stroke-width="5"/>
</svg>
